<svg width="400" height="119" viewBox="0 0 400 119" fill="none" xmlns="http://www.w3.org/2000/svg">
<g clip-path="url(#clip0)">
<path d="M400 85.2048H391.766V52.9382V34.4437L400 33.1848V85.2048Z" fill="#666667"/>
<path d="M381.179 85.2048H372.945V34.4437L381.179 33.1848V85.2048Z" fill="#666667"/>
<path d="M348.012 49.0641C350.434 49.001 352.851 49.3302 355.168 50.0386C356.902 50.5811 358.478 51.5402 359.755 52.8319C360.923 54.0798 361.761 55.5981 362.195 57.2501C362.691 59.1369 362.931 61.0817 362.909 63.0323V83.1723C361.521 83.4758 359.592 83.8332 357.121 84.2444C354.15 84.6916 351.148 84.8979 348.144 84.8612C346.123 84.8804 344.107 84.6845 342.128 84.2767C340.468 83.9454 338.888 83.2945 337.477 82.3605C336.189 81.4873 335.156 80.2876 334.485 78.8845C333.744 77.2315 333.388 75.4323 333.444 73.6222C333.388 71.8564 333.804 70.1077 334.647 68.5549C335.423 67.1961 336.531 66.056 337.867 65.2411C339.293 64.3865 340.855 63.7821 342.485 63.4541C344.261 63.0824 346.071 62.8975 347.885 62.9025C349.003 62.8959 350.121 62.95 351.234 63.0646C352.036 63.1417 352.83 63.283 353.608 63.487V62.5771C353.642 61.8496 353.526 61.1231 353.269 60.4418C353.011 59.7604 352.618 59.1386 352.112 58.6142C351.114 57.6186 349.379 57.1205 346.909 57.1197C345.275 57.1187 343.643 57.2382 342.027 57.4774C340.609 57.6705 339.214 58.0079 337.864 58.4843L336.629 50.6878C337.192 50.5158 337.897 50.332 338.743 50.1362C339.59 49.9403 340.511 49.767 341.507 49.6163C342.504 49.4655 343.556 49.3357 344.662 49.2268C345.768 49.1179 346.885 49.0637 348.012 49.0641ZM348.793 77.3901C349.747 77.3901 350.657 77.3683 351.525 77.3249C352.222 77.2989 352.917 77.234 353.607 77.1304V69.7874C353.215 69.7016 352.629 69.615 351.85 69.5277C351.138 69.4453 350.421 69.4019 349.704 69.3979C348.845 69.3951 347.986 69.4494 347.135 69.5606C346.401 69.6486 345.687 69.857 345.021 70.1774C344.443 70.4546 343.949 70.8804 343.589 71.4111C343.242 71.9304 343.579 75.9262 344.598 76.5107C345.897 77.1602 347.342 77.4638 348.793 77.3919V77.3901Z" fill="#666667"/>
<path d="M328.109 82.9772C326.014 83.5495 323.885 83.9945 321.735 84.3096C319.023 84.7288 316.283 84.9351 313.539 84.9264C311.069 85.0003 308.608 84.6034 306.287 83.7568C304.498 83.0805 302.917 81.9496 301.699 80.4759C300.535 78.9951 299.713 77.2758 299.292 75.4409C298.797 73.3332 298.557 71.1738 298.576 69.0089V49.9757H308.269V67.8399C308.269 70.9581 308.681 73.21 309.504 74.5956C310.327 75.9811 311.867 76.6741 314.122 76.6745C314.815 76.6745 315.552 76.642 316.334 76.577C317.115 76.512 317.809 76.436 318.415 76.3491V49.9728H328.107L328.109 82.9772Z" fill="#666667"/>
<path d="M291.294 83.0425C290.426 83.3021 289.429 83.5512 288.302 83.7897C287.175 84.0282 285.994 84.234 284.757 84.4071C283.521 84.579 282.263 84.7196 280.984 84.8289C279.705 84.9381 278.48 84.9924 277.31 84.9916C274.741 85.0335 272.185 84.6157 269.764 83.758C267.66 83.0045 265.75 81.7954 264.17 80.2175C262.619 78.6285 261.432 76.7225 260.691 74.6308C259.858 72.2629 259.45 69.7667 259.487 67.2572C259.454 64.7179 259.805 62.188 260.528 59.7532C261.138 57.679 262.155 55.7466 263.519 54.0685C264.809 52.518 266.447 51.2936 268.3 50.4951C270.348 49.6411 272.551 49.221 274.77 49.2614C275.985 49.2471 277.197 49.3778 278.38 49.6509C279.483 49.9253 280.561 50.2948 281.6 50.7553V35.2908L291.292 33.7311L291.294 83.0425ZM269.373 66.8002C269.373 69.7883 270.045 72.1924 271.39 74.0123C272.734 75.8322 274.729 76.7415 277.374 76.7404C278.241 76.7404 279.043 76.7078 279.78 76.6428C280.518 76.5778 281.126 76.502 281.604 76.4155V58.8092C280.867 58.3649 280.066 58.0362 279.229 57.8346C278.264 57.5764 277.269 57.4454 276.27 57.4451C271.672 57.4451 269.373 60.5635 269.373 66.8002Z" fill="#666667"/>
<path d="M254.414 40.0984C254.454 40.8806 254.32 41.6618 254.022 42.3862C253.724 43.1106 253.269 43.7603 252.69 44.2887C251.565 45.2729 250.121 45.8155 248.625 45.8155C247.129 45.8155 245.685 45.2729 244.559 44.2887C243.455 43.1727 242.836 41.6671 242.836 40.0982C242.836 38.5293 243.455 37.0236 244.559 35.9076C245.685 34.9243 247.13 34.3824 248.625 34.3824C250.12 34.3824 251.565 34.9243 252.69 35.9076C253.269 36.4363 253.724 37.0861 254.022 37.8105C254.32 38.535 254.454 39.3162 254.414 40.0984ZM253.503 84.1474H243.811V49.9734H253.503V84.1474Z" fill="#666667"/>
<path d="M223.584 77.1956C225.361 77.1956 226.619 77.0223 227.357 76.6757C227.725 76.4932 228.029 76.2022 228.226 75.842C228.424 75.4818 228.506 75.0697 228.462 74.6614C228.462 73.882 227.985 73.2 227.031 72.6153C225.64 71.8292 224.182 71.1669 222.675 70.6362C221.269 70.1217 219.89 69.536 218.544 68.8815C217.383 68.3276 216.318 67.593 215.389 66.705C214.513 65.8492 213.827 64.8204 213.373 63.6844C212.864 62.3359 212.621 60.9018 212.657 59.4612C212.601 58.0007 212.897 56.5479 213.519 55.2251C214.142 53.9024 215.073 52.7482 216.235 51.8597C218.619 49.9979 221.893 49.0668 226.057 49.0664C228.065 49.06 230.069 49.2449 232.041 49.6186C233.59 49.8909 235.113 50.2929 236.595 50.8205L234.903 58.3568C233.698 57.9453 232.471 57.5982 231.229 57.3171C229.765 56.9997 228.27 56.8474 226.773 56.863C223.737 56.863 222.219 57.7073 222.219 59.396C222.213 59.7523 222.279 60.1061 222.415 60.4358C222.591 60.7929 222.861 61.0959 223.196 61.3129C223.7 61.6616 224.233 61.9671 224.789 62.2263C225.461 62.5541 226.317 62.9142 227.359 63.3066C229.168 63.9539 230.929 64.7312 232.627 65.6323C233.848 66.2716 234.957 67.1068 235.908 68.1049C236.686 68.9493 237.264 69.9575 237.599 71.055C237.943 72.2779 238.108 73.5444 238.087 74.8147C238.087 78.1854 236.818 80.7354 234.282 82.4644C231.745 84.1935 228.157 85.0576 223.519 85.0568C220.97 85.1098 218.425 84.848 215.941 84.2773C214.513 83.9451 213.111 83.5109 211.745 82.9778L213.371 75.1166C215.017 75.7664 216.714 76.2773 218.445 76.644C220.134 77.0075 221.856 77.1924 223.584 77.1956Z" fill="#666667"/>
<path d="M204.46 75.0514L205.761 82.9126C205.09 83.2295 204.394 83.4902 203.68 83.6922C202.728 83.9717 201.762 84.1994 200.785 84.3742C199.722 84.57 198.583 84.7323 197.37 84.8612C196.16 84.9911 194.945 85.0562 193.728 85.0562C190.988 85.1159 188.261 84.6529 185.694 83.6922C183.557 82.8757 181.624 81.6005 180.034 79.9566C178.524 78.3526 177.391 76.4327 176.716 74.3365C175.985 72.0701 175.623 69.7012 175.643 67.3201C175.586 64.6015 176.061 61.898 177.042 59.3613C177.874 57.2403 179.124 55.3073 180.717 53.6766C182.205 52.1801 183.987 51.0078 185.951 50.2336C187.886 49.4614 189.95 49.0645 192.033 49.064C196.89 49.064 200.727 50.5475 203.547 53.5145C206.366 56.4815 207.776 60.8451 207.774 66.6052C207.774 67.1683 207.753 67.7857 207.71 68.4574C207.667 69.129 207.623 69.7245 207.579 70.2438H185.597C185.683 71.1919 185.978 72.1091 186.462 72.9293C186.945 73.7495 187.605 74.4522 188.394 74.9868C190.041 76.1558 192.252 76.7403 195.029 76.7403C196.785 76.7423 198.538 76.5792 200.263 76.2533C201.702 76.0089 203.109 75.6058 204.459 75.0514H204.46ZM198.409 63.6168C198.367 62.8014 198.225 61.9941 197.987 61.213C197.759 60.4542 197.383 59.7478 196.881 59.134C196.362 58.512 195.72 58.0034 194.995 57.6401C194.112 57.2224 193.142 57.0211 192.165 57.0527C191.204 57.028 190.248 57.2166 189.369 57.6049C188.621 57.9484 187.956 58.4468 187.416 59.0671C186.887 59.6898 186.479 60.4059 186.214 61.1783C185.934 61.9699 185.727 62.7853 185.596 63.6145L198.409 63.6168Z" fill="#666667"/>
<path d="M150.862 38.604C157.627 38.604 162.809 39.8059 166.408 42.2097C170.007 44.6136 171.807 48.3493 171.807 53.417C171.807 56.5786 171.082 59.145 169.631 61.1161C168.009 63.2142 165.836 64.8221 163.354 65.761C164.264 66.8877 165.218 68.1762 166.216 69.6264C167.213 71.0766 168.2 72.5926 169.175 74.1744C170.151 75.7558 171.094 77.4006 172.005 79.1089C172.917 80.8172 173.762 82.4956 174.542 84.1439H163.196C162.369 82.6718 161.53 81.1775 160.681 79.6611C159.832 78.1447 158.962 76.672 158.071 75.243C157.179 73.8143 156.296 72.4608 155.424 71.1825C154.552 69.9043 153.681 68.7456 152.812 67.7066H147.804V84.1475H137.658V39.7736C139.926 39.3335 142.217 39.0299 144.521 38.8642C146.884 38.6915 148.998 38.6048 150.862 38.604ZM151.447 47.2453C150.709 47.2453 150.048 47.2669 149.464 47.3099C148.879 47.353 148.327 47.3963 147.805 47.4398V59.6539H150.668C154.482 59.6539 157.214 59.1775 158.863 58.2247C160.512 57.2718 161.335 55.6476 161.333 53.3518C161.333 51.143 160.498 49.573 158.829 48.6417C157.159 47.7104 154.7 47.2449 151.45 47.2453H151.447Z" fill="#666667"/>
<path d="M98.3735 45.322C97.7363 37.1259 95.0427 29.2222 90.5411 22.34L80.8338 57.7576C79.3731 63.1303 76.5604 68.0404 72.6633 72.0208L72.6792 72.0367L57.7798 87.5546L69.1351 98.9417L84.0957 83.9982C92.4209 75.7044 97.4904 64.7023 98.3829 52.9917C98.4776 51.7434 98.5252 50.4792 98.5252 49.2062C98.5252 47.8981 98.4746 46.6034 98.3735 45.322Z" fill="#B3D237"/>
<path d="M26.1129 72.3239L26.1376 72.2993C20.4936 66.677 17.1079 59.1839 16.6209 51.237C16.5817 50.5653 16.5621 49.8876 16.5621 49.2038C16.5621 48.5894 16.5793 47.9782 16.6138 47.3704C16.8454 43.0911 17.9249 38.9002 19.7898 35.0405L0.848045 40.0667C0.466247 42.1019 0.21304 44.1591 0.0899269 46.2261C0.0311126 47.2118 0.00170898 48.2044 0.00170898 49.2038C0.00170898 50.4614 0.0485635 51.7066 0.142274 52.9394C1.0217 64.6683 6.09303 75.6906 14.4312 83.9959L49.2646 118.788L60.8799 107.186L26.1129 72.3239Z" fill="#187A67"/>
<path d="M40.699 17.6704C43.2411 16.9861 45.8563 16.6096 48.4884 16.5489C48.7466 16.5425 49.0048 16.5401 49.263 16.5401C49.5047 16.5401 49.7446 16.5401 49.9846 16.5489C55.21 16.6618 60.3321 18.0248 64.921 20.5236C69.51 23.0223 73.4321 26.584 76.3581 30.9096L76.5346 30.2716L81.4809 11.9768C72.9975 4.63184 62.2484 0.415512 51.028 0.0317225C50.4441 0.0109661 49.856 0.00039163 49.2635 0C48.6566 0 48.052 0.0111655 47.4497 0.0334884C38.67 0.359815 30.1371 3.02308 22.7335 7.74779C15.3299 12.4725 9.32455 19.0871 5.33862 26.9073L40.699 17.6704Z" fill="#68BD62"/>
</g>
<defs>
<clipPath id="clip0">
<rect width="400" height="118.788" fill="white"/>
</clipPath>
</defs>
</svg>
