<svg width="24" height="24" viewBox="0 0 24 24" fill="none" xmlns="http://www.w3.org/2000/svg">
<g id="monetization_on_24px">
<path id="icon/editor/monetization_on_24px" fill-rule="evenodd" clip-rule="evenodd" d="M2 12C2 6.48 6.47998 2 12 2C17.52 2 22 6.48 22 12C22 17.52 17.52 22 12 22C6.47998 22 2 17.52 2 12ZM13.41 18.67V18.09C15.15 17.76 16.52 16.76 16.54 14.93C16.54 12.41 14.38 11.54 12.36 11.02C10.34 10.5 9.69 9.95 9.69 9.11C9.69 8.14999 10.59 7.47 12.09 7.47C13.35 7.47 13.98 7.96001 14.21 8.72C14.31 9.08 14.61 9.34 14.98 9.34H15.24C15.83 9.34 16.25 8.75999 16.05 8.21001C15.67 7.14999 14.8 6.28999 13.42 5.95V5.33C13.42 4.60001 12.82 4 12.09 4H12.08C11.35 4 10.75 4.60001 10.75 5.33V5.92999C9.03003 6.3 7.64001 7.42 7.64001 9.14C7.64001 11.19 9.34003 12.21 11.82 12.81C14.05 13.34 14.49 14.12 14.49 14.95C14.49 15.56 14.05 16.54 12.09 16.54C10.63 16.54 9.87 16.02 9.58002 15.27C9.44 14.92 9.14001 14.67 8.77002 14.67H8.53003C7.92999 14.67 7.5 15.28 7.73004 15.83C8.23004 17.06 9.41003 17.79 10.74 18.07V18.67C10.74 19.4 11.34 20 12.07 20H12.08C12.81 20 13.41 19.4 13.41 18.67Z" fill="black" fill-opacity="0.54"/>
</g>
</svg>
